<?xml version="1.0" encoding="utf-8"?>
<!-- Generator: Adobe Illustrator 16.0.3, SVG Export Plug-In . SVG Version: 6.00 Build 0)  -->
<!DOCTYPE svg PUBLIC "-//W3C//DTD SVG 1.1//EN" "http://www.w3.org/Graphics/SVG/1.1/DTD/svg11.dtd">
<svg version="1.1" id="Apple" xmlns="http://www.w3.org/2000/svg" xmlns:xlink="http://www.w3.org/1999/xlink" x="0px" y="0px"
	 width="512px" height="512px" viewBox="0 0 512 512" enable-background="new 0 0 512 512" xml:space="preserve">
<path fill="#FFFFFF" d="M278.844,143.945c-6.219,1.846-15.01,3.271-26.251,4.28c0.506-25.072,7.044-46.698,19.712-64.848
	C284.74,65.344,305.746,52.884,335.359,46c0.184,0.481,0.422,1.446,0.649,2.787c0.23,1.34,0.459,2.259,0.646,2.765
	c0,0.666,0.045,1.517,0.137,2.527c0.047,1.019,0.092,1.846,0.092,2.542c0,10.262-2.443,21.688-7.32,34.308
	c-5.022,12.62-12.856,24.229-23.449,34.828C297.039,134.824,287.918,140.904,278.844,143.945z M391.92,320.865
	c-11.602-16.633-17.406-35.426-17.406-56.285c0-19.022,5.438-36.438,16.396-52.234c5.896-8.615,15.477-18.518,28.785-29.797
	c-8.752-10.782-17.498-19.16-26.25-25.241c-15.846-10.92-33.764-16.403-53.797-16.403c-11.933,0-26.49,2.856-43.621,8.569
	c-16.486,5.759-28.557,8.585-36.113,8.585c-5.713,0-17.316-2.504-34.822-7.565c-17.682-5.055-32.561-7.56-44.676-7.56
	c-28.971,0-52.832,12.107-71.717,36.337c-19.022,24.552-28.511,56.058-28.511,94.377c0,40.771,12.391,83.05,37.126,126.991
	C142.372,444.213,167.704,466,193.266,466c8.569,0,19.712-2.857,33.305-8.569c13.631-5.567,25.607-8.34,35.876-8.34
	c10.922,0,23.633,2.694,38.092,8.063c15.293,5.393,27.086,8.08,35.334,8.08c21.557,0,43.152-16.479,64.893-49.463
	c14.099-21.029,24.459-42.05,31.046-63.079C416.793,348.129,403.531,337.536,391.92,320.865z"/>
</svg>
