<?xml version="1.0" encoding="utf-8"?>
<!-- Generator: Adobe Illustrator 16.0.3, SVG Export Plug-In . SVG Version: 6.00 Build 0)  -->
<!DOCTYPE svg PUBLIC "-//W3C//DTD SVG 1.1//EN" "http://www.w3.org/Graphics/SVG/1.1/DTD/svg11.dtd">
<svg version="1.1" id="圖層_1" xmlns="http://www.w3.org/2000/svg" xmlns:xlink="http://www.w3.org/1999/xlink" x="0px" y="0px"
	 width="450px" height="246.43px" viewBox="0 0 450 246.43" enable-background="new 0 0 450 246.43" xml:space="preserve">
<g>
	<linearGradient id="SVGID_1_" gradientUnits="userSpaceOnUse" x1="-0.252" y1="122.792" x2="449.748" y2="122.792">
		<stop  offset="0" style="stop-color:#E4FF67"/>
		<stop  offset="0.0525" style="stop-color:#BAF378"/>
		<stop  offset="0.1099" style="stop-color:#94E888"/>
		<stop  offset="0.1735" style="stop-color:#72DE96"/>
		<stop  offset="0.2431" style="stop-color:#55D6A1"/>
		<stop  offset="0.3207" style="stop-color:#3ECFAB"/>
		<stop  offset="0.4095" style="stop-color:#2DCAB2"/>
		<stop  offset="0.5167" style="stop-color:#20C7B7"/>
		<stop  offset="0.6608" style="stop-color:#19C5BA"/>
		<stop  offset="1" style="stop-color:#17C4BB"/>
	</linearGradient>
	<path fill="url(#SVGID_1_)" d="M398.155,122.91c-1.24,39.587-33.812,71.505-73.808,71.505c-39.993,0-72.565-31.918-73.807-71.505
		h0.003C249.293,54.961,193.624-0.409,125.146-0.409c-23.552,0-45.588,6.33-64.417,17.555H29.598
		c-12.937,0-23.423,10.591-23.423,23.528c0,8.467,4.507,16.043,11.239,20.158C6.559,78.997,0.164,100.458-0.252,122.91h51.591
		c1.236-40.178,33.809-71.505,73.807-71.505c39.999,0,72.57,31.327,73.808,71.505h-0.003
		c1.251,67.948,56.922,123.083,125.396,123.083c68.477,0,124.148-55.135,125.4-123.083H398.155z"/>
	<g opacity="0.6">
		<defs>
			<path id="SVGID_2_" opacity="0.6" d="M125.146-0.433c68.478,0,124.146,54.904,125.397,123.083h-0.003
				c1.241,39.693,33.813,71.506,73.807,71.506c39.996,0,72.567-31.813,73.808-71.507h51.593
				c-1.252,68.176-56.924,123.082-125.4,123.082c-68.475,0-124.146-54.906-125.396-123.082h0.003
				c-1.238-39.698-33.809-71.504-73.808-71.504c-39.999,0-72.571,31.809-73.807,71.505H-0.252C1,54.471,56.664-0.433,125.146-0.433z
				"/>
		</defs>
		<clipPath id="SVGID_3_">
			<use xlink:href="#SVGID_2_"  overflow="visible"/>
		</clipPath>
		<path opacity="0.6" clip-path="url(#SVGID_3_)" fill-rule="evenodd" clip-rule="evenodd" fill="#666666" d="M236.193,168.287
			c5.474-14.478,8.601-30.112,8.904-46.438h-0.01c0.466-14.927,4.943-28.842,12.386-40.711l-35.692-47.343
			c-17.687,20.452-29.496,46.119-32.799,74.384L236.193,168.287z"/>
	</g>
	<linearGradient id="SVGID_4_" gradientUnits="userSpaceOnUse" x1="-0.252" y1="122.79" x2="449.748" y2="122.79">
		<stop  offset="0" style="stop-color:#E4FF67"/>
		<stop  offset="0.3392" style="stop-color:#E2FE68"/>
		<stop  offset="0.4833" style="stop-color:#DBFC6B"/>
		<stop  offset="0.5905" style="stop-color:#CEF970"/>
		<stop  offset="0.6793" style="stop-color:#BDF477"/>
		<stop  offset="0.7569" style="stop-color:#A6ED81"/>
		<stop  offset="0.8265" style="stop-color:#89E58C"/>
		<stop  offset="0.8901" style="stop-color:#67DB9A"/>
		<stop  offset="0.9475" style="stop-color:#41D0AA"/>
		<stop  offset="1" style="stop-color:#17C4BB"/>
	</linearGradient>
	<path fill="url(#SVGID_4_)" d="M431.997,60.748c6.606-4.141,11.015-11.637,11.015-20.01c0-12.937-10.486-23.592-23.424-23.592
		h-30.826C369.933,5.921,347.896-0.41,324.348-0.41c-68.475,0-124.146,55.371-125.396,123.319h0.003
		c-1.238,39.587-33.809,71.505-73.808,71.505c-39.999,0-72.571-31.918-73.807-71.505H-0.252C1,190.857,56.664,245.99,125.146,245.99
		c68.478,0,124.146-55.133,125.397-123.081h-0.003c1.241-40.178,33.813-71.634,73.807-71.634c12.639,0,24.533,3.12,34.936,8.719
		c1.114,0.785,2.305,1.563,3.552,2.147c20.577,12.599,34.518,34.771,35.32,60.768h51.593
		C449.331,100.458,442.902,78.944,431.997,60.748z"/>
</g>
</svg>
