<?xml version="1.0" encoding="utf-8"?>
<!-- Generator: Adobe Illustrator 16.0.3, SVG Export Plug-In . SVG Version: 6.00 Build 0)  -->
<!DOCTYPE svg PUBLIC "-//W3C//DTD SVG 1.1//EN" "http://www.w3.org/Graphics/SVG/1.1/DTD/svg11.dtd">
<svg version="1.1" id="Layer_1" xmlns="http://www.w3.org/2000/svg" xmlns:xlink="http://www.w3.org/1999/xlink" x="0px" y="0px"
	 width="512px" height="512px" viewBox="0 0 512 512" enable-background="new 0 0 512 512" xml:space="preserve">
<g>
	<path fill="#FFFFFF" d="M202.1,266.7H93.4C86,266.7,80,272.8,80,280.4v89c0,6.601,4.6,11.9,10.7,13.2l105.4,21.1l6.9,1.2
		c7-0.3,12.7-6.399,12.7-13.5v-111C215.7,272.7,209.5,266.7,202.1,266.7L202.1,266.7z"/>
	<path fill="#FFFFFF" d="M418.4,266.7H250.2c-7.4,0-13.4,6.1-13.4,13.699v120.5v0.2c0,5.5,3.3,10.1,7.9,12.2
		c0.2,0.2,0.2,0.2,0.2,0.2l5.3,1.1c0.2,0,0.2,0,0.3,0l164.7,32.9c0.2,0.1,0.5,0.3,0.7,0.3c0.1,0,0.199,0,0.3-0.101
		c0.7,0.4,1.399,0.4,2.1,0.4c7.4,0,13.601-6,13.601-13.5V280.4C432,272.7,425.8,266.7,418.4,266.7L418.4,266.7z"/>
	<path fill="#FFFFFF" d="M418.4,64c-0.7,0-1.4,0-2.101,0.399c-0.1-0.1-0.2-0.1-0.3-0.1c-0.2,0-0.5,0.1-0.7,0.3L250.5,97.4
		c-0.2,0-0.2,0-0.3,0l-5.1,1.101c0,0-0.2,0-0.4,0.2c-4.6,2.1-7.9,6.899-7.9,12.399v120.5c0,7.601,6,13.7,13.4,13.7h168.2
		c7.399,0,13.6-6.1,13.6-13.7V77.5C432,70.1,425.8,64,418.4,64L418.4,64z"/>
	<path fill="#FFFFFF" d="M203,107l-6.9,1.2L90.7,129.4C84.6,130.7,80,136,80,142.6v89c0,7.601,6,13.7,13.4,13.7h108.8
		c7.4,0,13.6-6.1,13.6-13.7V120.5C215.7,113.4,210.1,107.4,203,107L203,107z"/>
</g>
</svg>
